<?xml version="1.0" encoding="UTF-8" standalone="no"?>
<!-- Created with Inkscape (http://www.inkscape.org/) -->

<svg
   xmlns:dc="http://purl.org/dc/elements/1.1/"
   xmlns:cc="http://creativecommons.org/ns#"
   xmlns:rdf="http://www.w3.org/1999/02/22-rdf-syntax-ns#"
   xmlns:svg="http://www.w3.org/2000/svg"
   xmlns="http://www.w3.org/2000/svg"
   xmlns:sodipodi="http://sodipodi.sourceforge.net/DTD/sodipodi-0.dtd"
   xmlns:inkscape="http://www.inkscape.org/namespaces/inkscape"
   width="744.09448"
   height="250"
   id="svg2"
   version="1.1"
   inkscape:version="0.48.0 r9654"
   sodipodi:docname="DIAPHRAGME.svg">
  <defs
     id="defs4" />
  <sodipodi:namedview
     id="base"
     pagecolor="#ffffff"
     bordercolor="#666666"
     borderopacity="1.0"
     inkscape:pageopacity="0.0"
     inkscape:pageshadow="2"
     inkscape:zoom="0.7"
     inkscape:cx="265.56284"
     inkscape:cy="196.56436"
     inkscape:document-units="px"
     inkscape:current-layer="layer1"
     showgrid="false"
     inkscape:window-width="1366"
     inkscape:window-height="708"
     inkscape:window-x="-4"
     inkscape:window-y="-4"
     inkscape:window-maximized="1" />
  <metadata
     id="metadata7">
    <rdf:RDF>
      <cc:Work
         rdf:about="">
        <dc:format>image/svg+xml</dc:format>
        <dc:type
           rdf:resource="http://purl.org/dc/dcmitype/StillImage" />
        <dc:title></dc:title>
      </cc:Work>
    </rdf:RDF>
  </metadata>
  <g
     inkscape:label="Calque 1"
     inkscape:groupmode="layer"
     id="layer1"
     transform="translate(0,-802.36129)">
    <g
       id="g4262"
       transform="translate(-1.0101525,393.95949)">
      <path
         transform="matrix(0.96450329,0,0,0.96450329,4.4073785,13.248688)"
         d="m 211.07143,537.36218 c 0,54.63675 -44.29183,98.92858 -98.92857,98.92858 -54.636742,0 -98.928573,-44.29183 -98.928573,-98.92858 0,-54.63674 44.291831,-98.92857 98.928573,-98.92857 54.63674,0 98.92857,44.29183 98.92857,98.92857 z"
         sodipodi:ry="98.928574"
         sodipodi:rx="98.928574"
         sodipodi:cy="537.36218"
         sodipodi:cx="112.14286"
         id="path3812"
         style="fill:#000000;fill-opacity:0;fill-rule:evenodd;stroke:#000000;stroke-width:8.29442501;stroke-linecap:round;stroke-linejoin:round;stroke-miterlimit:4;stroke-opacity:1;stroke-dasharray:none"
         sodipodi:type="arc" />
      <path
         transform="matrix(0.88529642,0,0,0.88529642,13.128366,55.972962)"
         d="m 211.07143,537.36218 c 0,54.63675 -44.29183,98.92858 -98.92857,98.92858 -54.636742,0 -98.928573,-44.29183 -98.928573,-98.92858 0,-54.63674 44.291831,-98.92857 98.928573,-98.92857 54.63674,0 98.92857,44.29183 98.92857,98.92857 z"
         sodipodi:ry="98.928574"
         sodipodi:rx="98.928574"
         sodipodi:cy="537.36218"
         sodipodi:cx="112.14286"
         id="path3812-1"
         style="fill:#000000;fill-opacity:0;fill-rule:evenodd;stroke:#646464;stroke-width:8.66577053;stroke-linecap:round;stroke-linejoin:round;stroke-miterlimit:4;stroke-opacity:1;stroke-dasharray:none"
         sodipodi:type="arc" />
      <g
         id="g4249">
        <g
           id="g4239">
          <path
             style="fill:none;stroke:#000000;stroke-width:1px;stroke-linecap:butt;stroke-linejoin:miter;stroke-opacity:1"
             d="m 450.17661,547.61912 c -37.61905,30.83333 -69.5238,34.88095 -99.64285,30.35714"
             id="path3905-8-2"
             inkscape:connector-curvature="0"
             sodipodi:nodetypes="cc" />
          <path
             sodipodi:nodetypes="cc"
             inkscape:connector-curvature="0"
             id="path3860"
             d="m 319.46233,462.14321 c 68.57143,9.7619 85.48341,45.3427 94.41198,52.6046"
             style="fill:#000000;fill-opacity:0;stroke:#000000;stroke-width:1px;stroke-linecap:butt;stroke-linejoin:miter;stroke-opacity:1" />
          <path
             sodipodi:nodetypes="cc"
             inkscape:connector-curvature="0"
             id="path3860-9"
             d="m 439.46231,484.28607 c -9.7619,68.57143 -45.59524,85.35714 -52.85714,94.28571"
             style="fill:#000000;fill-opacity:0;stroke:#000000;stroke-width:1px;stroke-linecap:butt;stroke-linejoin:miter;stroke-opacity:1" />
          <path
             sodipodi:nodetypes="cc"
             inkscape:connector-curvature="0"
             id="path3860-9-4"
             d="M 414.46985,600.76872 C 345.89842,591.00682 332.93668,558.74491 324.00811,551.483"
             style="fill:#000000;fill-opacity:0;stroke:#000000;stroke-width:1px;stroke-linecap:butt;stroke-linejoin:miter;stroke-opacity:1" />
          <path
             sodipodi:nodetypes="cc"
             inkscape:connector-curvature="0"
             id="path3860-9-8"
             d="m 299.46233,580.71464 c 9.7619,-68.57144 45.3427,-84.59954 52.6046,-93.52811"
             style="fill:#000000;fill-opacity:0;stroke:#000000;stroke-width:1px;stroke-linecap:butt;stroke-linejoin:miter;stroke-opacity:1" />
          <path
             sodipodi:nodetypes="cc"
             inkscape:connector-curvature="0"
             id="path3905"
             d="m 284.46233,515.00035 c 37.61905,-30.83333 73.85284,-30.46897 103.97189,-25.94516"
             style="fill:#000000;fill-opacity:0;stroke:#000000;stroke-width:1px;stroke-linecap:butt;stroke-linejoin:miter;stroke-opacity:1" />
          <path
             sodipodi:nodetypes="cc"
             inkscape:connector-curvature="0"
             id="path3905-8"
             d="m 383.53888,449.46464 c 30.83333,37.61905 34.88095,72.20237 30.35714,102.32142"
             style="fill:#000000;fill-opacity:0;stroke:#000000;stroke-width:1px;stroke-linecap:butt;stroke-linejoin:miter;stroke-opacity:1" />
          <path
             sodipodi:nodetypes="cc"
             inkscape:connector-curvature="0"
             id="path3905-8-4"
             d="m 353.98642,614.28607 c -30.83333,-37.61905 -33.80952,-69.88095 -29.28571,-100"
             style="fill:#000000;fill-opacity:0;stroke:#000000;stroke-width:1px;stroke-linecap:butt;stroke-linejoin:miter;stroke-opacity:1" />
        </g>
        <path
           sodipodi:type="arc"
           style="fill:#000000;fill-opacity:0;fill-rule:evenodd;stroke:#000000;stroke-width:8.29442501;stroke-linecap:round;stroke-linejoin:round;stroke-miterlimit:4;stroke-opacity:1;stroke-dasharray:none"
           id="path3812-4"
           sodipodi:cx="112.14286"
           sodipodi:cy="537.36218"
           sodipodi:rx="98.928574"
           sodipodi:ry="98.928574"
           d="m 211.07143,537.36218 c 0,54.63675 -44.29183,98.92858 -98.92857,98.92858 -54.636742,0 -98.928573,-44.29183 -98.928573,-98.92858 0,-54.63674 44.291831,-98.92857 98.928573,-98.92857 54.63674,0 98.92857,44.29183 98.92857,98.92857 z"
           transform="matrix(0.96450329,0,0,0.96450329,259.40782,12.533965)" />
        <path
           sodipodi:type="arc"
           style="fill:#000000;fill-opacity:0;fill-rule:evenodd;stroke:#646464;stroke-width:8.66577053;stroke-linecap:round;stroke-linejoin:round;stroke-miterlimit:4;stroke-opacity:1;stroke-dasharray:none"
           id="path3812-1-0"
           sodipodi:cx="112.14286"
           sodipodi:cy="537.36218"
           sodipodi:rx="98.928574"
           sodipodi:ry="98.928574"
           d="m 211.07143,537.36218 c 0,54.63675 -44.29183,98.92858 -98.92857,98.92858 -54.636742,0 -98.928573,-44.29183 -98.928573,-98.92858 0,-54.63674 44.291831,-98.92857 98.928573,-98.92857 54.63674,0 98.92857,44.29183 98.92857,98.92857 z"
           transform="matrix(0.88529642,0,0,0.88529642,268.12881,55.258239)" />
      </g>
      <g
         id="g4205">
        <g
           id="g4195">
          <path
             style="fill:none;stroke:#000000;stroke-width:1px;stroke-linecap:butt;stroke-linejoin:miter;stroke-opacity:1"
             d="m 701.29136,571.98904 c -50.91491,-1.73248 -67.33099,-24.56287 -81.4881,-38.05231"
             id="path3905-8-2-1"
             inkscape:connector-curvature="0"
             sodipodi:nodetypes="cc" />
          <path
             sodipodi:nodetypes="cc"
             inkscape:connector-curvature="0"
             id="path3860-5"
             d="m 607.44855,447.14561 c 38.18047,40.83937 34.53054,74.87419 33.89038,87.7707"
             style="fill:#000000;fill-opacity:0;stroke:#000000;stroke-width:1px;stroke-linecap:butt;stroke-linejoin:miter;stroke-opacity:1" />
          <path
             sodipodi:nodetypes="cc"
             inkscape:connector-curvature="0"
             id="path3860-9-2"
             d="m 710.48711,508.28314 c -34.27338,35.65509 -70.8387,31.61112 -83.98775,32.23366"
             style="fill:#000000;fill-opacity:0;stroke:#000000;stroke-width:1px;stroke-linecap:butt;stroke-linejoin:miter;stroke-opacity:1" />
          <path
             sodipodi:nodetypes="cc"
             inkscape:connector-curvature="0"
             id="path3860-9-4-7"
             d="M 649.63416,609.8227 C 615.99938,566.7105 619.45708,537.45607 620.47604,525.12776"
             style="fill:#000000;fill-opacity:0;stroke:#000000;stroke-width:1px;stroke-linecap:butt;stroke-linejoin:miter;stroke-opacity:1" />
          <path
             sodipodi:nodetypes="cc"
             inkscape:connector-curvature="0"
             id="path3860-9-8-6"
             d="m 551.55932,559.43405 c 28.21246,-36.16017 65.13397,-40.40696 84.0914,-40.77696"
             style="fill:#000000;fill-opacity:0;stroke:#000000;stroke-width:1px;stroke-linecap:butt;stroke-linejoin:miter;stroke-opacity:1" />
          <path
             sodipodi:nodetypes="cc"
             inkscape:connector-curvature="0"
             id="path3905-1"
             d="m 556.55545,484.94468 c 47.63192,-2.56068 78.48734,31.69957 85.06832,40.13825"
             style="fill:#000000;fill-opacity:0;stroke:#000000;stroke-width:1px;stroke-linecap:butt;stroke-linejoin:miter;stroke-opacity:1" />
          <path
             sodipodi:nodetypes="cc"
             inkscape:connector-curvature="0"
             id="path3905-8-42"
             d="m 677.32002,458.03013 c -4.25786,42.8337 -20.04447,62.4631 -42.1202,82.42858"
             style="fill:#000000;fill-opacity:0;stroke:#000000;stroke-width:1px;stroke-linecap:butt;stroke-linejoin:miter;stroke-opacity:1" />
          <path
             sodipodi:nodetypes="cc"
             inkscape:connector-curvature="0"
             id="path3905-8-4-3"
             d="m 588.15952,601.95936 c 2.74262,-49.14714 19.82039,-62.81983 37.85551,-82.78532"
             style="fill:#000000;fill-opacity:0;stroke:#000000;stroke-width:1px;stroke-linecap:butt;stroke-linejoin:miter;stroke-opacity:1" />
        </g>
        <path
           sodipodi:type="arc"
           style="fill:#000000;fill-opacity:0;fill-rule:evenodd;stroke:#000000;stroke-width:8.29442501;stroke-linecap:round;stroke-linejoin:round;stroke-miterlimit:4;stroke-opacity:1;stroke-dasharray:none"
           id="path3812-4-7"
           sodipodi:cx="112.14286"
           sodipodi:cy="537.36218"
           sodipodi:rx="98.928574"
           sodipodi:ry="98.928574"
           d="m 211.07143,537.36218 c 0,54.63675 -44.29183,98.92858 -98.92857,98.92858 -54.636742,0 -98.928573,-44.29183 -98.928573,-98.92858 0,-54.63674 44.291831,-98.92857 98.928573,-98.92857 54.63674,0 98.92857,44.29183 98.92857,98.92857 z"
           transform="matrix(0.90698454,0.32809395,-0.32809395,0.90698454,703.91847,3.920428)" />
        <path
           sodipodi:type="arc"
           style="fill:#000000;fill-opacity:0;fill-rule:evenodd;stroke:#646464;stroke-width:8.66577053;stroke-linecap:round;stroke-linejoin:round;stroke-miterlimit:4;stroke-opacity:1;stroke-dasharray:none"
           id="path3812-1-0-1"
           sodipodi:cx="112.14286"
           sodipodi:cy="537.36218"
           sodipodi:rx="98.928574"
           sodipodi:ry="98.928574"
           d="m 211.07143,537.36218 c 0,54.63675 -44.29183,98.92858 -98.92857,98.92858 -54.636742,0 -98.928573,-44.29183 -98.928573,-98.92858 0,-54.63674 44.291831,-98.92857 98.928573,-98.92857 54.63674,0 98.92857,44.29183 98.92857,98.92857 z"
           transform="matrix(0.83250122,0.30115024,-0.30115024,0.83250122,697.58592,47.063422)" />
      </g>
    </g>
  </g>
</svg>
